# File created by Blade
# Date/Time:  Thu Jan 22 15:33:09 2015
#---------------------------------------------------------
:version 1.10
:name HOM
:units
  mass 1.0
  length 1.000000
  angle deg
:documentation
     Acclaim Skeleton File
:root
   axis xyz
   order TX TY TZ RX RY RZ
   position 0.000000 0.000000 0.000000
   orientation 0 0 0
:bonedata
   begin
      id 1
      name RightUpLeg_dum
      direction -1.000000 0.000000 0.000000
      length 3.693983
      axis 0.0 0.0 0.0 xyz
   end
   begin
      id 2
      name LeftUpLeg_dum
      direction 1.000000 0.000000 0.000000
      length 3.693983
      axis 0.0 0.0 0.0 xyz
   end
   begin
      id 3
      name Spine_dum
      direction 0.000000 1.000000 0.000000
      length 2.392956
      axis 0.0 0.0 0.0 xyz
   end
   begin
      id 4
      name RightUpLeg
      direction 0.000000 -1.000000 0.000000
      length 15.795667
      axis 0.0 0.0 0.0 xyz
      dof rx ry rz
   end
   begin
      id 5
      name RightLeg
      direction 0.000000 -1.000000 0.000000
      length 14.766989
      axis 0.0 0.0 0.0 xyz
      dof rx ry rz
   end
   begin
      id 6
      name RightFoot
      direction 0.000000 -0.258819 0.965926
      length 4.962790
      axis 15.0 0.0 0.0 xyz
      dof rx ry rz
   end
   begin
      id 7
      name RightToeBase
      direction 0.000000 0.000000 1.000000
      length 2.952750
      axis 0.0 0.0 0.0 xyz
      dof rx ry rz
   end
   begin
      id 8
      name LeftUpLeg
      direction 0.000000 -1.000000 0.000000
      length 15.795667
      axis 0.0 0.0 0.0 xyz
      dof rx ry rz
   end
   begin
      id 9
      name LeftLeg
      direction 0.000000 -1.000000 0.000000
      length 14.766989
      axis 0.0 0.0 0.0 xyz
      dof rx ry rz
   end
   begin
      id 10
      name LeftFoot
      direction 0.000000 -0.258819 0.965926
      length 4.962790
      axis 15.0 0.0 0.0 xyz
      dof rx ry rz
   end
   begin
      id 11
      name LeftToeBase
      direction 0.000000 0.000000 1.000000
      length 2.952750
      axis 0.0 0.0 0.0 xyz
      dof rx ry rz
   end
   begin
      id 12
      name Spine
      direction 0.000000 1.000000 0.000000
      length 0.000000
      axis 0.0 0.0 0.0 xyz
      dof rx ry rz
   end
   begin
      id 13
      name Spine_dum1
      direction 0.000000 1.000000 0.000000
      length 13.207411
      axis 0.0 0.0 0.0 xyz
   end
   begin
      id 14
      name Spine_dum2
      direction 0.000000 1.000000 0.000000
      length 13.207411
      axis 0.0 0.0 0.0 xyz
   end
   begin
      id 15
      name Spine_dum3
      direction 0.000000 1.000000 0.000000
      length 19.250100
      axis 0.0 0.0 0.0 xyz
   end
   begin
      id 16
      name RightShoulder
      direction -1.000000 0.000000 0.000000
      length 8.140465
      axis 0.0 0.0 90.0 xyz
      dof rx ry rz
   end
   begin
      id 17
      name RightArm
      direction -1.000000 0.000000 0.000000
      length 10.649840
      axis 0.0 0.0 90.0 xyz
      dof rx ry rz
   end
   begin
      id 18
      name RightForeArm
      direction -1.000000 0.000000 0.000000
      length 8.304624
      axis 0.0 0.0 90.0 xyz
      dof ry rz rx
   end
   begin
      id 19
      name RightHand
      direction -1.000000 0.000000 0.000000
      length 0.000000
      axis 0.0 0.0 90.0 xyz
      dof rx ry rz
   end
   begin
      id 20
      name RightHand_dum1
      direction -1.000000 0.000000 0.000000
      length 3.937000
      axis 0.0 0.0 90.0 xyz
   end
   begin
      id 21
      name RightHand_dum2
      direction 0.000000 0.000000 0.000000
      length 0.000000
      axis 0.0 0.0 90.0 xyz
   end
   begin
      id 22
      name RightHandThumb1
      direction 0.000000 0.000000 1.000000
      length 3.937000
      axis 0.0 0.0 90.0 xyz
      dof rx rz ry
   end
   begin
      id 23
      name LeftShoulder
      direction 1.000000 0.000000 0.000000
      length 8.140465
      axis 0.0 0.0 -90.0 xyz
      dof rx ry rz
   end
   begin
      id 24
      name LeftArm
      direction 1.000000 0.000000 0.000000
      length 10.649840
      axis 0.0 0.0 -90.0 xyz
      dof rx ry rz
   end
   begin
      id 25
      name LeftForeArm
      direction 1.000000 0.000000 0.000000
      length 8.304624
      axis 0.0 0.0 -90.0 xyz
      dof ry rz rx
   end
   begin
      id 26
      name LeftHand
      direction 1.000000 0.000000 0.000000
      length 0.000000
      axis 0.0 0.0 -90.0 xyz
      dof rx ry rz
   end
   begin
      id 27
      name LeftHand_dum1
      direction 1.000000 0.000000 0.000000
      length 3.937000
      axis 0.0 0.0 -90.0 xyz
   end
   begin
      id 28
      name LeftHand_dum2
      direction 0.000000 0.000000 0.000000
      length 0.000000
      axis 0.0 0.0 -90.0 xyz
   end
   begin
      id 29
      name LeftHandThumb1
      direction 0.000000 0.000000 1.000000
      length 3.937000
      axis 0.0 0.0 -90.0 xyz
      dof rx rz ry
   end
   begin
      id 30
      name Head
      direction 0.000000 1.000000 0.000000
      length 4.527550
      axis 0.0 0.0 0.0 xyz
      dof rx ry rz
   end
:hierarchy
   begin
      root RightUpLeg_dum LeftUpLeg_dum Spine_dum
      RightUpLeg_dum RightUpLeg
      LeftUpLeg_dum LeftUpLeg
      Spine_dum Spine
      RightUpLeg RightLeg
      RightLeg RightFoot
      RightFoot RightToeBase
      LeftUpLeg LeftLeg
      LeftLeg LeftFoot
      LeftFoot LeftToeBase
      Spine Spine_dum1 Spine_dum2 Spine_dum3
      Spine_dum1 RightShoulder
      Spine_dum2 LeftShoulder
      Spine_dum3 Head
      RightShoulder RightArm
      RightArm RightForeArm
      RightForeArm RightHand
      RightHand RightHand_dum1 RightHand_dum2
      RightHand_dum2 RightHandThumb1
      LeftShoulder LeftArm
      LeftArm LeftForeArm
      LeftForeArm LeftHand
      LeftHand LeftHand_dum1 LeftHand_dum2
      LeftHand_dum2 LeftHandThumb1
   end

# File created by Blade
# Date/Time:  Thu Jan 22 15:33:01 2015
# Frame Rate: 120.000 fps
#------------------------------------------------------
:FULLY-SPECIFIED
:DEGREES
490
root -15.305227 2.911146 4.219133 116.608853 -78.519321 -162.850862
RightUpLeg -99.664083 9.303944 11.299479
RightLeg 122.308235 -0.000000 -0.000000
RightFoot 23.927150 4.107407 7.756080
RightToeBase 19.374276 -0.000000 -0.000000
LeftUpLeg -99.163665 8.396200 10.146781
LeftLeg 129.795128 -0.000000 -0.000000
LeftFoot 5.470886 -8.846103 9.294682
LeftToeBase 5.025221 -0.000000 -0.000000
Spine 42.799073 11.228562 10.665893
RightShoulder 1.730770 1.621282 -7.483766
RightArm 8.126981 -36.872966 69.408897
RightForeArm 28.085791 -0.000000 52.376473
RightHand 15.661776 -0.000000 -4.828856
RightHandThumb1 -24.326973 -0.000000 -32.862282
LeftShoulder 8.530606 22.742023 20.803106
LeftArm 38.603183 39.537033 -42.284217
LeftForeArm 7.396611 -0.000000 65.069049
LeftHand -12.736690 -0.000000 0.055856
LeftHandThumb1 -26.253704 0.000000 33.147579
Head 58.796867 -5.759105 6.986364
491
root -15.295174 2.906186 4.207604 116.435636 -78.501846 -162.802963
RightUpLeg -99.731557 9.398118 11.327984
RightLeg 122.302619 -0.000000 -0.000000
RightFoot 24.506193 3.920431 7.750576
RightToeBase 19.164835 -0.000000 -0.000000
LeftUpLeg -99.059974 8.391705 10.237854
LeftLeg 129.727393 -0.000000 -0.000000
LeftFoot 5.585793 -9.028722 9.503545
LeftToeBase 4.847172 -0.000000 -0.000000
Spine 42.619233 11.272059 10.581448
RightShoulder 2.171288 1.916864 -7.155173
RightArm 8.997984 -36.798340 69.201601
RightForeArm 27.320957 -0.000000 51.062757
RightHand 15.542418 -0.000000 -4.436523
RightHandThumb1 -24.326973 -0.000000 -32.862282
LeftShoulder 8.964703 22.292243 20.598935
LeftArm 39.715687 39.212779 -42.071663
LeftForeArm 6.509739 0.000000 63.731721
LeftHand -12.365329 -0.000000 -0.628187
LeftHandThumb1 -26.253704 0.000000 33.147579
Head 58.757012 -5.874210 7.204758
492
root -15.286258 2.900007 4.196436 116.243875 -78.483574 -162.723748
RightUpLeg -99.791417 9.485912 11.333621
RightLeg 122.347784 -0.000000 -0.000000
RightFoot 24.766645 3.823618 7.921455
RightToeBase 19.538271 -0.000000 -0.000000
LeftUpLeg -98.973111 8.388320 10.312469
LeftLeg 129.684195 -0.000000 -0.000000
LeftFoot 5.685541 -9.127607 9.614600
LeftToeBase 4.757624 -0.000000 -0.000000
Spine 42.439117 11.323723 10.516278
RightShoulder 2.507647 2.260590 -6.837373
RightArm 9.844899 -36.919215 68.917135
RightForeArm 26.431843 -0.000000 49.833556
RightHand 15.359848 -0.000000 -3.768368
RightHandThumb1 -24.326973 -0.000000 -32.862282
LeftShoulder 9.398438 21.869279 20.449336
LeftArm 40.914936 38.999988 -41.786401
LeftForeArm 6.050795 -0.000000 62.395212
LeftHand -11.934924 -0.000000 -1.167313
LeftHandThumb1 -26.253704 0.000000 33.147579
Head 58.672732 -5.963416 7.476414
493
root -15.275956 2.897423 4.175528 116.306499 -78.489603 -162.904115
RightUpLeg -99.838479 9.654510 11.311130
RightLeg 122.406923 -0.000000 -0.000000
RightFoot 24.996301 3.680966 7.904797
RightToeBase 19.898483 -0.000000 -0.000000
LeftUpLeg -98.852745 8.463545 10.335998
LeftLeg 129.635967 -0.000000 -0.000000
LeftFoot 5.739651 -9.216539 9.738009
LeftToeBase 4.681156 -0.000000 -0.000000
Spine 42.296219 11.490310 10.407289
RightShoulder 2.664055 2.554618 -6.457105
RightArm 10.855569 -37.341529 68.463879
RightForeArm 26.157810 0.000000 48.600311
RightHand 15.394444 -0.000000 -3.657040
RightHandThumb1 -24.326973 -0.000000 -32.862282
LeftShoulder 9.795458 21.417898 20.370103
LeftArm 42.346476 38.965667 -41.238545
LeftForeArm 5.894038 0.000000 60.993707
LeftHand -11.344691 0.000000 -1.550564
LeftHandThumb1 -26.253704 0.000000 33.147579
Head 58.565950 -6.143032 7.824090
494
root -15.262092 2.896647 4.163894 116.421007 -78.670561 -163.074539
RightUpLeg -99.963142 9.719507 11.112497
RightLeg 122.514531 -0.000000 -0.000000
RightFoot 25.126474 3.597773 7.787024
RightToeBase 20.012160 -0.000000 -0.000000
LeftUpLeg -98.766876 8.431267 10.172894
LeftLeg 129.534380 -0.000000 -0.000000
LeftFoot 5.795038 -9.256617 9.929371
LeftToeBase 4.734860 -0.000000 -0.000000
Spine 42.094618 11.592735 10.149008
RightShoulder 2.721422 2.842489 -6.042921
RightArm 11.912035 -38.031365 67.845802
RightForeArm 26.610348 -0.000000 47.380139
RightHand 15.379125 -0.000000 -3.397461
RightHandThumb1 -24.326973 -0.000000 -32.862282
LeftShoulder 10.230795 20.955068 20.244504
LeftArm 43.586378 38.978120 -40.706144
LeftForeArm 5.822484 -0.000000 59.851703
LeftHand -10.845194 0.000000 -1.991983
LeftHandThumb1 -26.253704 0.000000 33.147579
Head 58.453022 -6.366491 8.086685
495
root -15.252425 2.894987 4.132274 116.229534 -78.520606 -163.019941
RightUpLeg -99.914231 9.937368 11.266557
RightLeg 122.569521 -0.000000 -0.000000
RightFoot 25.224048 3.426303 7.754770
RightToeBase 20.409477 -0.000000 -0.000000
LeftUpLeg -98.649060 8.589066 10.349937
LeftLeg 129.550950 -0.000000 -0.000000
LeftFoot 5.804479 -9.247469 9.840661
LeftToeBase 4.861457 -0.000000 -0.000000
Spine 41.997158 11.769725 10.164422
RightShoulder 2.765994 3.140429 -5.642602
RightArm 12.966977 -38.860225 67.229579
RightForeArm 27.511435 -0.000000 46.176475
RightHand 15.589022 -0.000000 -3.673888
RightHandThumb1 -24.326973 -0.000000 -32.862282
LeftShoulder 10.569755 20.477245 20.119978
LeftArm 44.828115 39.160716 -40.039730
LeftForeArm 5.970065 -0.000000 58.881959
LeftHand -10.543556 -0.000000 -2.159649
LeftHandThumb1 -26.253704 0.000000 33.147579
Head 58.289612 -6.537676 8.477882
496
root -15.234551 2.897778 4.119550 116.019876 -78.519731 -162.855966
RightUpLeg -99.948667 10.003895 11.292414
RightLeg 122.665520 -0.000000 -0.000000
RightFoot 25.236235 3.228182 7.746362
RightToeBase 20.841309 -0.000000 -0.000000
LeftUpLeg -98.591185 8.600331 10.371737
LeftLeg 129.491140 -0.000000 -0.000000
LeftFoot 5.844353 -9.248865 9.791689
LeftToeBase 4.957545 -0.000000 -0.000000
Spine 41.829038 11.842154 10.116770
RightShoulder 2.806683 3.364466 -5.284705
RightArm 13.907471 -39.462821 66.702003
RightForeArm 28.677504 -0.000000 45.036545
RightHand 15.936091 -0.000000 -3.776772
RightHandThumb1 -24.326973 -0.000000 -32.862282
LeftShoulder 10.948206 20.033339 19.917665
LeftArm 45.952336 39.283971 -39.398591
LeftForeArm 5.962573 -0.000000 57.958384
LeftHand -10.174805 -0.000000 -2.621548
LeftHandThumb1 -26.253704 0.000000 33.147579
Head 58.198470 -6.672344 8.560222
497
root -15.223160 2.898331 4.099331 116.034190 -78.558842 -162.883580
RightUpLeg -100.031659 10.128411 11.254647
RightLeg 122.815731 -0.000000 -0.000000
RightFoot 25.248582 3.036909 7.665283
RightToeBase 20.759075 -0.000000 -0.000000
LeftUpLeg -98.576057 8.672240 10.365420
LeftLeg 129.443754 -0.000000 -0.000000
LeftFoot 5.934957 -9.352016 9.904678
LeftToeBase 4.692165 -0.000000 -0.000000
Spine 41.618251 11.994441 9.988519
RightShoulder 2.821100 3.608082 -4.926909
RightArm 14.571461 -39.911140 66.416538
RightForeArm 29.948988 -0.000000 44.040425
RightHand 16.162022 0.000000 -3.856661
RightHandThumb1 -24.326973 -0.000000 -32.862282
LeftShoulder 11.353166 19.560260 19.822812
LeftArm 46.915577 39.492104 -38.867383
LeftForeArm 6.053994 -0.000000 57.124795
LeftHand -9.881284 -0.000000 -2.946940
LeftHandThumb1 -26.253704 0.000000 33.147579
Head 58.087912 -6.864396 8.790816
498
root -15.212257 2.896266 4.095910 115.698582 -78.533494 -162.624699
RightUpLeg -100.041193 10.172468 11.261041
RightLeg 122.978499 -0.000000 -0.000000
RightFoot 25.236536 2.896861 7.605052
RightToeBase 20.756142 -0.000000 -0.000000
LeftUpLeg -98.529910 8.644449 10.415404
LeftLeg 129.421051 -0.000000 -0.000000
LeftFoot 5.979617 -9.365575 9.895389
LeftToeBase 4.692438 -0.000000 -0.000000
Spine 41.480894 11.976798 9.986012
RightShoulder 2.911288 3.873217 -4.742351
RightArm 15.072967 -40.301358 66.359138
RightForeArm 31.566560 -0.000000 43.072946
RightHand 16.505853 -0.000000 -4.224887
RightHandThumb1 -24.326973 -0.000000 -32.862282
LeftShoulder 11.718846 19.161860 19.660155
LeftArm 47.673848 39.635121 -38.503301
LeftForeArm 6.168254 -0.000000 56.355391
LeftHand -9.665352 -0.000000 -3.508078
LeftHandThumb1 -26.253704 0.000000 33.147579
Head 57.987177 -6.877537 8.745220
499
root -15.201814 2.896412 4.088243 115.478840 -78.509111 -162.450915
RightUpLeg -100.061173 10.225037 11.276727
RightLeg 123.149513 -0.000000 -0.000000
RightFoot 25.222404 2.681072 7.761063
RightToeBase 20.500679 -0.000000 -0.000000
LeftUpLeg -98.502047 8.655599 10.469916
LeftLeg 129.394174 -0.000000 -0.000000
LeftFoot 5.979653 -9.425411 9.783476
LeftToeBase 4.949246 -0.000000 -0.000000
Spine 41.319991 11.989278 9.962570
RightShoulder 3.006850 4.026278 -4.560387
RightArm 15.512428 -40.522570 66.368325
RightForeArm 32.984168 -0.000000 42.229271
RightHand 16.849751 0.000000 -4.974335
RightHandThumb1 -24.326973 -0.000000 -32.862282
LeftShoulder 12.038713 18.810879 19.523546
LeftArm 48.378494 39.794551 -38.147230
LeftForeArm 5.774747 -0.000000 55.583253
LeftHand -9.102470 -0.000000 -5.044086
LeftHandThumb1 -26.253704 0.000000 33.147579
Head 57.911116 -6.841625 8.727394
